<?xml version="1.0" encoding="UTF-8"?>
<svg xmlns="http://www.w3.org/2000/svg" xmlns:xlink="http://www.w3.org/1999/xlink" viewBox="0 0 216.91 60">
  <defs>
    <style>
      .cls-1 {
        fill: url(#linear-gradient-2);
        opacity: .6;
      }

      .cls-1, .cls-2, .cls-3, .cls-4, .cls-5, .cls-6, .cls-7, .cls-8, .cls-9, .cls-10, .cls-11 {
        isolation: isolate;
      }

      .cls-1, .cls-3, .cls-4, .cls-6, .cls-7, .cls-9, .cls-10 {
        mix-blend-mode: multiply;
      }

      .cls-2 {
        fill: url(#linear-gradient);
      }

      .cls-2, .cls-5 {
        opacity: .26;
      }

      .cls-2, .cls-5, .cls-11 {
        mix-blend-mode: screen;
      }

      .cls-12 {
        fill: #fee066;
      }

      .cls-3 {
        fill: url(#linear-gradient-6);
      }

      .cls-3, .cls-7, .cls-9, .cls-10 {
        opacity: .75;
      }

      .cls-13 {
        stroke-width: 1.07px;
      }

      .cls-13, .cls-14, .cls-15, .cls-16, .cls-17, .cls-18, .cls-19 {
        fill: #c62033;
      }

      .cls-13, .cls-14, .cls-15, .cls-16, .cls-18, .cls-19 {
        stroke: #822030;
        stroke-miterlimit: 10;
      }

      .cls-20 {
        fill: #fff;
      }

      .cls-14 {
        stroke-width: 1.08px;
      }

      .cls-21 {
        fill: #c72037;
      }

      .cls-4 {
        fill: url(#linear-gradient-7);
      }

      .cls-5 {
        fill: url(#linear-gradient-9);
      }

      .cls-6 {
        fill: url(#linear-gradient-8);
      }

      .cls-7 {
        fill: url(#linear-gradient-4);
      }

      .cls-9 {
        fill: url(#linear-gradient-10);
      }

      .cls-15 {
        stroke-width: 1.11px;
      }

      .cls-10 {
        fill: url(#linear-gradient-5);
      }

      .cls-11 {
        fill: url(#linear-gradient-3);
        opacity: .42;
      }

      .cls-16 {
        stroke-width: 1.05px;
      }

      .cls-18 {
        stroke-width: 1.11px;
      }

      .cls-19 {
        stroke-width: 1.07px;
      }
    </style>
    <linearGradient id="linear-gradient" x1="80.58" y1="-144.27" x2="80.58" y2="-141.54" gradientTransform="translate(0 -95.95) scale(1 -1)" gradientUnits="userSpaceOnUse">
      <stop offset="0" stop-color="#fff"/>
      <stop offset="1" stop-color="#52332a"/>
    </linearGradient>
    <linearGradient id="linear-gradient-2" x1="77.56" y1="-145.55" x2="77.56" y2="-131.04" gradientTransform="translate(0 -95.95) scale(1 -1)" gradientUnits="userSpaceOnUse">
      <stop offset="0" stop-color="#fff"/>
      <stop offset=".99" stop-color="#c8aea6"/>
    </linearGradient>
    <linearGradient id="linear-gradient-3" x1="78.41" y1="-149.13" x2="85.49" y2="-149.13" xlink:href="#linear-gradient"/>
    <linearGradient id="linear-gradient-4" x1="76.54" y1="-149.14" x2="81.48" y2="-149.14" gradientTransform="translate(0 -95.95) scale(1 -1)" gradientUnits="userSpaceOnUse">
      <stop offset="0" stop-color="#805c52"/>
      <stop offset="1" stop-color="#a7887d"/>
    </linearGradient>
    <linearGradient id="linear-gradient-5" x1="71.59" x2="76.54" xlink:href="#linear-gradient-4"/>
    <linearGradient id="linear-gradient-6" x1="83.26" y1="-144.43" x2="78.91" y2="-145.97" xlink:href="#linear-gradient-4"/>
    <linearGradient id="linear-gradient-7" x1="75.81" y1="-146.23" x2="70.2" y2="-151.84" xlink:href="#linear-gradient-2"/>
    <linearGradient id="linear-gradient-8" x1="75.42" y1="-139.77" x2="77.77" y2="-147.91" gradientTransform="translate(0 -95.95) scale(1 -1)" gradientUnits="userSpaceOnUse">
      <stop offset="0" stop-color="#fff6ce"/>
      <stop offset=".99" stop-color="#c8aea6"/>
    </linearGradient>
    <linearGradient id="linear-gradient-9" x1="72.47" y1="-144.27" x2="72.47" y2="-141.54" xlink:href="#linear-gradient"/>
    <linearGradient id="linear-gradient-10" x1="75.75" y1="-144.88" x2="70.89" y2="-144.88" xlink:href="#linear-gradient-4"/>
  </defs>
  <g class="cls-8">
    <g id="Layer_2">
      <g id="Layer_1-2" data-name="Layer_1">
        <g>
          <g>
            <g>
              <path class="cls-13" d="M75.66,32.73h9.61c2.75,0,4.13,1.3,4.13,3.89v1.47c0,.67-.32,1-.94,1h-18.93c-.51,0-.77-.26-.77-.77V7.07c0-.51.26-.77.77-.77h15.28c2.75,0,4.13,1.32,4.13,3.95v1.47c0,.67-.32,1-.94,1h-12.33v6.67h7.96c2.75,0,4.13,1.32,4.13,3.95v1.48c0,.63-.32.94-.94.94h-11.15v6.96Z"/>
              <path class="cls-16" d="M107.61,39.1c-3.06,0-5.73-.67-8.01-2-2.28-1.33-4.05-3.24-5.31-5.72-1.26-2.48-1.89-5.42-1.89-8.82s.67-6.54,2-9.05,3.18-4.45,5.54-5.8c2.36-1.35,5.03-2.03,8.01-2.03,1.59,0,2.94.11,4.06.32,1.12.21,2.22.53,3.31.96,1.31.5,2.13,1.16,2.44,1.97.31.81.31,1.84,0,3.08l-.41,1.68c-.12.5-.37.75-.75.75-.23,0-.54-.1-.93-.29-1.16-.58-2.27-1.05-3.34-1.42-1.06-.37-2.45-.55-4.15-.55-2.55,0-4.65.83-6.3,2.5-1.64,1.66-2.47,4.29-2.47,7.89,0,3.4.86,5.94,2.58,7.6,1.72,1.66,3.88,2.5,6.47,2.5,1.35,0,2.57-.2,3.66-.61,1.08-.41,2.02-.88,2.81-1.42.79-.54,1.4-1.01,1.83-1.39.23-.23.44-.38.61-.43.17-.06.32-.09.44-.09.7,0,1.04.52,1.04,1.57,0,.74-.19,1.61-.58,2.61-.39,1.01-1.02,1.98-1.89,2.93-.87.95-2.03,1.73-3.48,2.35-1.45.62-3.22.93-5.31.93Z"/>
              <path class="cls-14" d="M128.65,18.43c1.39-1.82,3.37-2.74,5.95-2.74s4.85.84,6.57,2.53,2.59,4.29,2.59,7.82v12.31c0,.52-.26.77-.77.77h-5.29c-.52,0-.77-.26-.77-.77v-11.71c0-1.74-.43-2.95-1.28-3.63-.85-.67-1.81-1.01-2.88-1.01s-2.02.34-2.85,1.01c-.83.67-1.25,1.9-1.25,3.69v11.65c0,.52-.26.77-.77.77h-5.23c-.52,0-.77-.26-.77-.77V6.84c0-.51.26-.77.77-.77h.3c1.86,0,3.28.44,4.25,1.31.97.87,1.46,2.38,1.46,4.52v6.54Z"/>
              <path class="cls-18" d="M153.99,29.23c.49,2.66,2.52,3.99,6.07,3.99,1.39,0,2.6-.11,3.62-.34,1.02-.22,2.13-.6,3.31-1.14.49-.2.84-.31,1.04-.31.49,0,.74.31.74.92,0,.82-.3,1.76-.89,2.82-.59,1.06-1.59,1.98-2.98,2.76-1.39.78-3.33,1.17-5.83,1.17-3.72,0-6.71-1.11-8.96-3.34-2.25-2.23-3.37-5.27-3.37-9.11,0-2.37.47-4.48,1.41-6.32.94-1.84,2.29-3.29,4.05-4.36,1.76-1.06,3.86-1.6,6.32-1.6s4.53.51,6.1,1.53c1.57,1.02,2.74,2.34,3.5,3.96.76,1.62,1.13,3.32,1.13,5.12,0,.78-.01,1.43-.03,1.96-.02.53-.05.98-.09,1.35-.04.61-.43.92-1.17.92h-13.99ZM154.05,24.32h8.22c.08-.49.02-1.04-.18-1.66-.2-.61-.58-1.15-1.14-1.6-.55-.45-1.36-.68-2.42-.68-1.39,0-2.46.36-3.22,1.07-.76.72-1.18,1.67-1.26,2.85Z"/>
              <path class="cls-15" d="M183.49,39.09c-3.35,0-6.06-1.09-8.12-3.28-2.06-2.19-3.1-5.22-3.1-9.11s1.1-6.91,3.31-9.08c2.21-2.17,5.11-3.25,8.71-3.25,1.63,0,3.15.24,4.54.74,1.23.41,2.01,1.02,2.36,1.84.35.82.36,1.94.03,3.37l-.37,1.53c-.12.41-.31.61-.55.61-.21,0-.43-.06-.67-.18-.94-.45-1.76-.78-2.45-.98-.7-.2-1.51-.31-2.45-.31-1.39,0-2.61.47-3.65,1.41-1.04.94-1.56,2.43-1.56,4.48,0,1.88.49,3.38,1.47,4.51.98,1.12,2.49,1.69,4.54,1.69,1.19,0,2.21-.19,3.07-.58.86-.39,1.51-.73,1.96-1.01.37-.24.65-.37.86-.37.45,0,.67.33.67.98,0,.82-.24,1.78-.71,2.88-.47,1.1-1.33,2.06-2.58,2.88-1.25.82-3.02,1.23-5.3,1.23Z"/>
              <path class="cls-19" d="M201.8,32.45v5.9c0,.51-.26.77-.77.77h-5.19c-.51,0-.77-.26-.77-.77V7.07c0-.51.26-.77.77-.77h.3c1.85,0,3.26.43,4.22,1.3.96.87,1.45,2.36,1.45,4.48v12.1l6.02-6.85c.47-.51.94-.77,1.42-.77h5.96c.24,0,.38.09.44.27.06.18,0,.34-.15.5l-6.73,7.49,7.55,13.51c.08.16.08.33,0,.5-.08.18-.22.27-.41.27h-5.9c-.63,0-1.08-.26-1.36-.77l-4.48-8.5-2.36,2.6Z"/>
            </g>
            <g>
              <polygon class="cls-12" points="73.12 50.81 68.41 47.04 74.51 46.88 76.54 41.58 78.56 46.88 84.67 47.04 79.96 50.81 81.48 56.66 76.54 53.46 71.59 56.66 73.12 50.81"/>
              <g>
                <polygon class="cls-2" points="84.58 47.04 78.57 46.88 76.58 49.67 84.58 47.04"/>
                <polygon class="cls-1" points="76.58 49.67 78.57 46.88 78.56 46.88 76.54 41.58 76.54 49.68 76.58 49.67"/>
                <polygon class="cls-11" points="76.56 49.7 76.54 49.72 81.48 56.66 81.48 56.66 79.96 50.81 76.56 49.7"/>
                <polygon class="cls-7" points="76.54 49.72 76.54 53.46 81.48 56.66 76.54 49.72 76.54 49.72"/>
                <polygon class="cls-10" points="71.59 56.66 71.59 56.66 76.54 53.46 76.54 49.72 71.59 56.66"/>
                <polygon class="cls-3" points="76.56 49.7 79.96 50.81 84.67 47.04 84.58 47.04 76.58 49.67 76.56 49.7"/>
                <polygon class="cls-4" points="76.54 49.72 76.52 49.69 73.12 50.81 71.59 56.66 76.54 49.72 76.54 49.72"/>
                <polygon class="cls-6" points="76.53 49.69 76.54 49.68 76.54 41.58 74.52 46.87 76.52 49.68 76.53 49.69"/>
                <polygon class="cls-5" points="74.52 46.87 74.51 46.88 68.41 47.04 68.41 47.04 76.52 49.68 74.52 46.87"/>
                <polygon class="cls-9" points="76.52 49.68 68.41 47.04 73.12 50.81 73.12 50.81 76.52 49.69 76.52 49.68"/>
              </g>
            </g>
            <path class="cls-21" d="M30,0C13.43,0,0,13.43,0,30s13.43,30,30,30,30-13.43,30-30S46.57,0,30,0ZM30,50.12c-11.11,0-20.12-9.01-20.12-20.12S18.89,9.88,30,9.88s20.12,9.01,20.12,20.12-9.01,20.12-20.12,20.12Z"/>
            <g>
              <g>
                <path class="cls-20" d="M52.43,22.39l4.2-.25.48,1.42h-5.89s-.47-1.38-.47-1.38l4.69-3.55.48,1.41-3.49,2.35Z"/>
                <path class="cls-20" d="M54.55,28.63l-.26-2.1-1.32.17.31,2.48-1.03.13-.48-3.81,5.53-.69.48,3.82-1.03.13-.31-2.49-1.17.15.26,2.1-.99.12Z"/>
                <path class="cls-20" d="M54.08,31.79l.05-.73-1.97-.15.1-1.34,5.56.42-.17,2.19c-.05.66-.24,1.16-.56,1.51-.32.35-.75.5-1.28.46-.38-.03-.7-.13-.94-.31-.24-.18-.43-.44-.56-.78l-2.33.99h-.06s.11-1.44.11-1.44l2.04-.83ZM55.16,31.14l-.06.85c-.02.25.03.45.16.59.12.14.31.22.55.24.24.02.43-.03.58-.15s.23-.31.25-.56l.06-.85-1.53-.12Z"/>
                <path class="cls-20" d="M51.4,35.83l.31-1.3,5.42,1.3-.31,1.3-5.42-1.3Z"/>
                <path class="cls-20" d="M52.02,40.65l.8-2.02-2.06-.82.5-1.25,5.18,2.06-1.38,3.47-.96-.38.88-2.22-1.19-.47-.8,2.01-.96-.38Z"/>
                <path class="cls-20" d="M48.91,41.58l.67-1.16,4.84,2.77-.67,1.16-4.84-2.77Z"/>
                <path class="cls-20" d="M48.32,46.41l1.3-1.67-1.05-.82-1.53,1.97-.82-.64,2.36-3.03,4.4,3.42-2.36,3.04-.82-.64,1.54-1.98-.93-.72-1.3,1.67-.79-.61Z"/>
                <path class="cls-20" d="M46.01,45.48l3.63,4.24-1.37,1.17c-.37.32-.78.52-1.23.61-.44.09-.88.05-1.31-.12-.43-.17-.82-.44-1.15-.82l-.17-.19c-.33-.39-.55-.81-.65-1.25-.1-.45-.07-.89.08-1.31.15-.43.41-.8.77-1.12l1.39-1.19ZM47.94,49.8l-2.28-2.66-.35.3c-.29.25-.43.55-.41.89.02.34.21.72.56,1.13l.16.18c.35.41.69.65,1.03.72.33.07.65-.02.95-.28l.34-.29Z"/>
              </g>
              <g>
                <path class="cls-20" d="M11.67,15l-2.43-3.43.95-1.16,3.12,4.99-.93,1.14-5.49-2.1.94-1.15,3.84,1.72Z"/>
                <path class="cls-20" d="M15.84,9.9l-1.64,1.33.84,1.03,1.94-1.58.65.8-2.98,2.42-3.52-4.33,2.99-2.43.66.81-1.94,1.58.74.91,1.64-1.33.63.77Z"/>
                <path class="cls-20" d="M18.8,8.61l-.65.34.91,1.75-1.19.62-2.58-4.95,1.95-1.02c.59-.31,1.11-.41,1.58-.33.47.09.82.37,1.07.84.18.34.26.67.24.96s-.14.6-.37.89l2.07,1.46.03.05-1.28.67-1.79-1.29ZM17.68,8.03l.75-.39c.23-.12.37-.27.42-.45.05-.18.02-.38-.09-.59-.11-.21-.26-.35-.43-.41-.18-.06-.38-.03-.61.08l-.75.39.71,1.36Z"/>
                <path class="cls-20" d="M23.65,8.75l-1.27.42-1.76-5.29,1.27-.42,1.76,5.29Z"/>
                <path class="cls-20" d="M27.41,5.68l-2.13.39.39,2.19-1.32.24-.99-5.49,3.67-.66.18,1.02-2.35.42.23,1.26,2.13-.38.18,1.02Z"/>
                <path class="cls-20" d="M29.82,7.82l-1.34.05-.21-5.57,1.34-.05.21,5.57Z"/>
                <path class="cls-20" d="M34.22,5.77l-2.1-.22-.14,1.33,2.48.26-.11,1.03-3.82-.4.58-5.55,3.83.4-.11,1.03-2.49-.26-.12,1.17,2.1.22-.1.99Z"/>
                <path class="cls-20" d="M34.65,8.22l1.67-5.32,1.71.54c.47.15.86.39,1.17.72.31.33.51.72.59,1.18.09.46.06.92-.09,1.41l-.08.25c-.15.49-.39.89-.72,1.21-.33.32-.71.53-1.16.63-.44.1-.89.08-1.36-.06l-1.75-.55ZM37.3,4.29l-1.05,3.34.45.14c.37.12.69.07.97-.13.28-.2.5-.56.66-1.07l.07-.23c.16-.51.18-.93.07-1.25-.12-.32-.36-.54-.74-.66l-.43-.14Z"/>
              </g>
              <g>
                <path class="cls-20" d="M22.9,52.6l-2.28,3.54-1.43-.45,3.47-4.75,1.4.44.1,5.88-1.42-.45.17-4.21Z"/>
                <path class="cls-20" d="M16.58,50.61l1.85,1.03.65-1.16-2.18-1.22.5-.9,3.36,1.87-2.71,4.87-3.36-1.88.51-.91,2.19,1.22.57-1.03-1.85-1.03.48-.87Z"/>
                <path class="cls-20" d="M14.32,48.35l.55.47,1.29-1.5,1.02.88-3.63,4.23-1.67-1.43c-.5-.43-.8-.88-.89-1.34-.09-.47.04-.9.39-1.31.25-.29.52-.49.81-.58.29-.09.61-.09.96,0l.58-2.47.04-.04,1.09.94-.54,2.14ZM14.2,49.61l-.65-.55c-.19-.17-.38-.24-.57-.22-.18.02-.36.12-.51.3-.16.18-.23.37-.22.56,0,.19.11.37.3.53l.64.55,1-1.17Z"/>
                <path class="cls-20" d="M12.64,43.8l.87,1.02-4.26,3.6-.87-1.02,4.26-3.6Z"/>
                <path class="cls-20" d="M8.39,41.45l1.15,1.84,1.88-1.18.71,1.14-4.72,2.96-1.98-3.16.88-.55,1.27,2.02,1.09-.68-1.15-1.84.88-.55Z"/>
                <path class="cls-20" d="M9.49,38.43l.55,1.22-5.09,2.27-.55-1.22,5.09-2.27Z"/>
                <path class="cls-20" d="M5.94,35.06l.58,2.03,1.28-.36-.68-2.4.99-.28,1.05,3.7-5.37,1.52-1.05-3.7,1-.28.69,2.41,1.13-.32-.58-2.03.96-.27Z"/>
                <path class="cls-20" d="M8.06,33.79l-5.56.43-.14-1.79c-.04-.49.04-.94.23-1.35.19-.41.48-.74.87-.99.39-.25.84-.4,1.34-.44l.26-.02c.51-.04.97.03,1.39.22s.76.46,1.02.84.41.8.45,1.28l.14,1.83ZM3.43,32.79l3.49-.27-.04-.47c-.03-.38-.19-.67-.48-.85-.29-.19-.7-.26-1.24-.21l-.24.02c-.54.04-.94.17-1.19.4-.26.23-.37.54-.34.93l.04.45Z"/>
              </g>
            </g>
            <path class="cls-20" d="M30,9.1c11.52,0,20.9,9.38,20.9,20.9s-9.38,20.9-20.9,20.9-20.9-9.38-20.9-20.9S18.48,9.1,30,9.1M30,8.86c-11.67,0-21.14,9.46-21.14,21.14s9.46,21.14,21.14,21.14,21.14-9.46,21.14-21.14-9.46-21.14-21.14-21.14h0Z"/>
            <path class="cls-20" d="M30,1.33c15.81,0,28.67,12.86,28.67,28.67s-12.86,28.67-28.67,28.67S1.33,45.81,1.33,30,14.19,1.33,30,1.33M30,1.07C14.02,1.07,1.07,14.02,1.07,30s12.95,28.93,28.93,28.93,28.93-12.95,28.93-28.93S45.98,1.07,30,1.07h0Z"/>
            <g>
              <path class="cls-17" d="M27.57,42.07c-.59,0-1.17-.18-1.66-.51-.31-.21-.58-.48-.8-.81-1.42-2.13-3.95-5.29-6.05-7.22-1.83-1.66-4.05-3.24-6.11-4.32-.25-.13-.41-.38-.42-.66-.01-.29.11-.54.35-.7,1.07-.72,2.39-1.11,3.72-1.11,1.07,0,2.15.25,3.2.73,1.64.75,5.64,4.28,7.13,5.97.1.11.24.17.38.17,0,0,.02,0,.03,0,.16,0,.3-.09.39-.22,2.54-3.69,5.31-7.16,8.24-10.31,5.6-6.03,11.76-11.34,18.31-15.79.97-.66,1.98-1.3,2.97-1.94l.23-.15c.61-.37,1.24-.75,1.86-1.12l.15-.09c-.56.54-1.13,1.08-1.69,1.61-5.89,5.58-11.53,12.03-17.76,20.32-2.96,3.94-5.63,8.05-8.33,12.27-.55.86-1.11,1.73-1.69,2.57-.55.81-1.47,1.29-2.46,1.29ZM60.1,3.65h0Z"/>
              <path class="cls-20" d="M60.35,4.09h0,0M55.61,7.03c-5.25,5.18-10.38,11.16-15.97,18.6-2.97,3.95-5.64,8.07-8.35,12.3-.45.71-1.05,1.64-1.68,2.55-.46.67-1.22,1.07-2.04,1.07-.49,0-.97-.15-1.38-.42-.26-.18-.48-.4-.66-.67-1.39-2.09-3.9-5.26-6.13-7.31-1.85-1.69-4.12-3.29-6.21-4.39-.12-.07-.15-.18-.15-.24,0-.07.02-.17.13-.25.98-.66,2.2-1.02,3.44-1.02,1,0,2,.23,2.99.68,1.49.68,5.36,4.02,6.95,5.85.19.22.48.35.77.35.02,0,.04,0,.06,0,.31-.02.6-.18.78-.44,2.53-3.67,5.28-7.12,8.19-10.25,5.57-6,11.7-11.29,18.23-15.72.34-.23.68-.46,1.03-.69M60.07,3.15c-.08,0-.16.02-.23.06-.87.52-1.75,1.04-2.61,1.57-1.07.68-2.16,1.38-3.21,2.09-6.71,4.55-12.88,9.92-18.4,15.87-3.02,3.25-5.78,6.72-8.29,10.37-1.54-1.77-5.56-5.31-7.3-6.1-1.2-.55-2.35-.78-3.41-.78-1.59,0-2.99.51-4.01,1.2-.83.55-.76,1.78.11,2.24,2.25,1.18,4.4,2.79,6,4.25,2,1.84,4.48,4.89,5.97,7.12.24.37.56.69.94.95.6.4,1.27.6,1.95.6,1.11,0,2.21-.53,2.88-1.52.58-.85,1.14-1.71,1.69-2.58,2.65-4.14,5.35-8.3,8.31-12.24,5.41-7.19,11.16-14.06,17.71-20.26.73-.69,1.47-1.4,2.2-2.1h0c.14-.13.17-.37.05-.55-.08-.12-.21-.18-.35-.18h0Z"/>
            </g>
            <path class="cls-20" d="M29.12,57.77c.12-.11.24-.22.36-.33,1.07-.99,2.02-2.1,2.91-3.26h0c.48-.63.93-1.3,1.37-1.97.09-.14.19-.28.28-.42.18-.26.53-.32.79-.14.07.05.11.09.15.16.24.36.63.86.96,1.17.26.24.6.5.97.7.14.07.15.28.02.36-.28.19-.73.29-1.21.06-.28-.13-.93-.72-1.17-1-.41.59-.86,1.14-1.37,1.67-.91.96-1.91,1.82-3.01,2.55-.18.11-.35.22-.52.33-.14.08-.29.17-.43.25-.03.02-.07,0-.09-.02s-.02-.07,0-.09h0Z"/>
          </g>
          <path class="cls-20" d="M5.26,17.96c.05.16.1.31.14.47.43,1.39,1.02,2.73,1.68,4.04h0c.36.71.77,1.4,1.18,2.09.09.14.17.29.26.43.16.27.05.61-.22.77-.07.04-.13.06-.21.07-.43.06-1.05.19-1.47.35-.33.13-.71.33-1.05.57-.13.09-.32.01-.33-.14-.05-.33.06-.78.47-1.11.24-.19,1.05-.53,1.41-.62-.35-.62-.65-1.28-.91-1.96-.47-1.24-.81-2.52-.99-3.82-.02-.21-.05-.42-.08-.61-.01-.16-.03-.33-.04-.49,0-.03.02-.07.06-.08s.07.01.08.05h.01Z"/>
        </g>
      </g>
    </g>
  </g>
</svg>